<svg xmlns="http://www.w3.org/2000/svg" width="11" height="10" viewBox="0 0 11 10" fill="none">
  <path fill-rule="evenodd" clip-rule="evenodd" d="M0.792893 0.292893C0.402369 0.683418 0.402369 1.31658 0.792893 1.70711L4.08579 5L0.792893 8.29289C0.402369 8.68342 0.402369 9.31658 0.792893 9.70711C1.18342 10.0976 1.81658 10.0976 2.20711 9.70711L5.5 6.41421L8.79289 9.70711C9.18342 10.0976 9.81658 10.0976 10.2071 9.70711C10.5976 9.31658 10.5976 8.68342 10.2071 8.29289L6.91421 5L10.2071 1.70711C10.5976 1.31658 10.5976 0.683418 10.2071 0.292893C9.81658 -0.0976311 9.18342 -0.0976311 8.79289 0.292893L5.5 3.58579L2.20711 0.292893C1.81658 -0.0976311 1.18342 -0.0976311 0.792893 0.292893Z" fill="white"/>
</svg>